<svg width="24" height="24" viewBox="0 0 24 24" fill="none" xmlns="http://www.w3.org/2000/svg">
  <path d="M12 7.17871C12.4142 7.17871 12.75 6.84292 12.75 6.42871C12.75 6.0145 12.4142 5.67871 12 5.67871V7.17871ZM13.1494 14.2267L12.9339 13.5083L13.1494 14.2267ZM10.8506 14.2267L11.0661 13.5083L10.8506 14.2267ZM20.5747 11.9991L20.3592 11.2808L20.5747 11.9991ZM21.25 8.42871V10.0835H22.75V8.42871H21.25ZM2.75002 10.0835V8.42871H1.25002V10.0835H2.75002ZM20.3592 11.2808L12.9339 13.5083L13.3649 14.9451L20.7902 12.7175L20.3592 11.2808ZM11.0661 13.5083L3.64083 11.2808L3.20981 12.7175L10.6351 14.9451L11.0661 13.5083ZM4.00002 7.17871H12V5.67871H4.00002V7.17871ZM17 7.17871H20V5.67871H17V7.17871ZM14.582 7.17871H17V5.67871H14.582V7.17871ZM12.9339 13.5083C12.3247 13.6911 11.6753 13.6911 11.0661 13.5083L10.6351 14.9451C11.5255 15.2122 12.4746 15.2122 13.3649 14.9451L12.9339 13.5083ZM1.25002 10.0835C1.25002 11.2979 2.04661 12.3685 3.20981 12.7175L3.64083 11.2808C3.1121 11.1221 2.75002 10.6355 2.75002 10.0835H1.25002ZM21.25 10.0835C21.25 10.6355 20.8879 11.1221 20.3592 11.2808L20.7902 12.7175C21.9534 12.3685 22.75 11.2979 22.75 10.0835H21.25ZM22.75 8.42871C22.75 6.90993 21.5188 5.67871 20 5.67871V7.17871C20.6904 7.17871 21.25 7.73836 21.25 8.42871H22.75ZM2.75002 8.42871C2.75002 7.73836 3.30966 7.17871 4.00002 7.17871V5.67871C2.48123 5.67871 1.25002 6.90993 1.25002 8.42871H2.75002Z"
        fill="#96FFFF"/>
  <path d="M12 11.5717L12 9.85742" stroke="#96FFFF" stroke-width="1.5" stroke-linecap="round"
        stroke-linejoin="round"/>
  <path d="M3.58339 15.5C3.58339 15.0858 3.2476 14.75 2.83339 14.75C2.41918 14.75 2.08339 15.0858 2.08339 15.5H3.58339ZM20.4167 11.5713V16.9998H21.9167V11.5713H20.4167ZM17.1667 20.2498H6.83339V21.7498H17.1667V20.2498ZM3.58339 16.9998V15.5H2.08339V16.9998H3.58339ZM6.83339 20.2498C5.03847 20.2498 3.58339 18.7947 3.58339 16.9998H2.08339C2.08339 19.6232 4.21004 21.7498 6.83339 21.7498V20.2498ZM20.4167 16.9998C20.4167 18.7947 18.9616 20.2498 17.1667 20.2498V21.7498C19.7901 21.7498 21.9167 19.6232 21.9167 16.9998H20.4167Z"
        fill="#96FFFF"/>
  <path d="M15.3333 6.42855V5C15.3333 3.89543 14.4379 3 13.3333 3H10.6667C9.5621 3 8.66667 3.89543 8.66667 5L8.66667 6.42855"
        stroke="#96FFFF" stroke-width="1.5"/>
</svg>